HIERARCHY
ROOT Hips
{
  OFFSET 4.59272 96.8285 -1.4085
  CHANNELS 6 Xposition Yposition Zposition Zrotation Xrotation Yrotation
  JOINT Spine
  {
    OFFSET 0 11.0026 -2.28207
    CHANNELS 6 Xposition Yposition Zposition Zrotation Xrotation Yrotation
    JOINT Spine1
    {
      OFFSET 0 10.9693 0
      CHANNELS 6 Xposition Yposition Zposition Zrotation Xrotation Yrotation
      JOINT Spine2
      {
        OFFSET 0 10.9693 0
        CHANNELS 6 Xposition Yposition Zposition Zrotation Xrotation Yrotation
        JOINT Spine3
        {
          OFFSET 0 10.9693 0
          CHANNELS 6 Xposition Yposition Zposition Zrotation Xrotation Yrotation
          JOINT Neck
          {
            OFFSET 0 14.1034 1.41034
            CHANNELS 6 Xposition Yposition Zposition Zrotation Xrotation Yrotation
            JOINT Neck1
            {
              OFFSET 0 4.78292 0
              CHANNELS 6 Xposition Yposition Zposition Zrotation Xrotation Yrotation
              JOINT Head
              {
                OFFSET 0 4.78292 0
                CHANNELS 6 Xposition Yposition Zposition Zrotation Xrotation Yrotation
                End Site
                {
                  OFFSET 0 9.72808 0
                }
              }
            }
          }
          JOINT RightShoulder
          {
            OFFSET 0 10.0739 5.27092
            CHANNELS 6 Xposition Yposition Zposition Zrotation Xrotation Yrotation
            JOINT RightArm
            {
              OFFSET 0 20.7223 0
              CHANNELS 6 Xposition Yposition Zposition Zrotation Xrotation Yrotation
              JOINT RightForeArm
              {
                OFFSET 0 28.842 0
                CHANNELS 6 Xposition Yposition Zposition Zrotation Xrotation Yrotation
                JOINT RightHand
                {
                  OFFSET 0 25.0424 0
                  CHANNELS 6 Xposition Yposition Zposition Zrotation Xrotation Yrotation
                  JOINT RightHandThumb1
                  {
                    OFFSET -3.04472 3.62624 2.69644
                    CHANNELS 6 Xposition Yposition Zposition Zrotation Xrotation Yrotation
                    End Site
                    {
                      OFFSET 0 0 0
                    }
                  }
                  JOINT RightHandMiddle1
                  {
                    OFFSET 0 9.66998 -0.061987
                    CHANNELS 6 Xposition Yposition Zposition Zrotation Xrotation Yrotation
                    End Site
                    {
                      OFFSET 0 0 0
                    }
                  }
                }
              }
            }
          }
          JOINT LeftShoulder
          {
            OFFSET 0 10.0739 5.27092
            CHANNELS 6 Xposition Yposition Zposition Zrotation Xrotation Yrotation
            JOINT LeftArm
            {
              OFFSET 0 20.7223 0
              CHANNELS 6 Xposition Yposition Zposition Zrotation Xrotation Yrotation
              JOINT LeftForeArm
              {
                OFFSET 0 28.842 0
                CHANNELS 6 Xposition Yposition Zposition Zrotation Xrotation Yrotation
                JOINT LeftHand
                {
                  OFFSET 0 25.0424 0
                  CHANNELS 6 Xposition Yposition Zposition Zrotation Xrotation Yrotation
                  JOINT LeftHandThumb1
                  {
                    OFFSET 3.04472 3.62624 2.69644
                    CHANNELS 6 Xposition Yposition Zposition Zrotation Xrotation Yrotation
                    End Site
                    {
                      OFFSET 0 0 0
                    }
                  }
                  JOINT LeftHandMiddle1
                  {
                    OFFSET 0 9.66998 -0.061987
                    CHANNELS 6 Xposition Yposition Zposition Zrotation Xrotation Yrotation
                    End Site
                    {
                      OFFSET 0 0 0
                    }
                  }
                }
              }
            }
          }
        }
      }
    }
  }
  JOINT RightUpLeg
  {
    OFFSET -10.3008 0 0
    CHANNELS 6 Xposition Yposition Zposition Zrotation Xrotation Yrotation
    JOINT RightLeg
    {
      OFFSET 0 -44.9556 0
      CHANNELS 6 Xposition Yposition Zposition Zrotation Xrotation Yrotation
      JOINT RightFoot
      {
        OFFSET 0 -44.3497 0
        CHANNELS 6 Xposition Yposition Zposition Zrotation Xrotation Yrotation
        JOINT RightForeFoot
        {
          OFFSET 0 -4.35574 0
          CHANNELS 6 Xposition Yposition Zposition Zrotation Xrotation Yrotation
          JOINT RightToeBase
          {
            OFFSET 0 0 17.0584
            CHANNELS 6 Xposition Yposition Zposition Zrotation Xrotation Yrotation
            End Site
            {
              OFFSET 0 0 6.41607
            }
          }
        }
      }
    }
  }
  JOINT LeftUpLeg
  {
    OFFSET 10.3008 0 0
    CHANNELS 6 Xposition Yposition Zposition Zrotation Xrotation Yrotation
    JOINT LeftLeg
    {
      OFFSET 0 -44.9556 0
      CHANNELS 6 Xposition Yposition Zposition Zrotation Xrotation Yrotation
      JOINT LeftFoot
      {
        OFFSET 0 -44.3497 0
        CHANNELS 6 Xposition Yposition Zposition Zrotation Xrotation Yrotation
        JOINT LeftForeFoot
        {
          OFFSET 0 -4.35574 0
          CHANNELS 6 Xposition Yposition Zposition Zrotation Xrotation Yrotation
          JOINT LeftToeBase
          {
            OFFSET 0 0 17.0584
            CHANNELS 6 Xposition Yposition Zposition Zrotation Xrotation Yrotation
            End Site
            {
              OFFSET 0 0 7.80259
            }
          }
        }
      }
    }
  }
}
MOTION
Frames:	7
Frame Time:	0.00833333
4.59272 96.8285 -1.4085 1.74964 -12.8752 -2.93371 0 11.0026 -2.28207 -2.12417 7.23344 -0.133573 0 10.9693 0 -0.324316 5.73096 0.162466 8.88178e-016 10.9693 0 -0.353379 5.45391 1.11421 4.44089e-016 10.9693 0 0.687094 2.64266 -0.201808 -8.88178e-016 14.1034 1.41034 -1.85543 1.28448 1.24207 3.33067e-016 4.78292 3.55271e-015 -0.318548 -0.159863 -2.41966 -2.22045e-016 4.78292 0 -0.105956 -12.2713 -0.184971 -1.77636e-015 10.0739 5.27092 84.9894 -22.7003 -1.93783 0 20.7223 0 18.0694 10.731 29.8434 2.84217e-014 28.842 7.10543e-015 7.27481e-007 29.4079 -18.6048 -2.84217e-014 25.0424 -1.77636e-015 2.83283 -17.5191 -1.66763e-015 -3.04472 3.62624 2.69644 1.02333e-015 45.2637 -4.51883e-015 2.84217e-014 9.66998 -0.061987 -1.98785e-016 -7.95139e-016 -0 -1.77636e-015 10.0739 5.27092 -87.8773 -21.0145 0.761511 -2.84217e-014 20.7223 0 -9.01352 13.6311 -17.9967 2.84217e-014 28.842 -3.55271e-015 -2.21282e-007 26.1853 12.7543 -2.84217e-014 25.0424 -3.55271e-015 -1.10786 -8.805 -1.50866e-016 3.04472 3.62624 2.69644 2.27724e-015 45.2637 -4.37761e-015 2.84217e-014 9.66998 -0.061987 -9.93923e-017 -3.18055e-015 -4.96962e-017 -10.3008 0 -3.55271e-015 -10.9946 15.4129 -2.98451 0 -44.9556 0 1.30471e-015 6.6774 1.60114e-015 -3.55271e-015 -44.3497 -1.77636e-015 0.816493 -9.14863 8.86043 0 -4.35574 -1.77636e-015 1.70442e-015 9.93923e-017 -0 3.55271e-015 2.22045e-016 17.0584 1.89603e-015 -14.2341 8.20323e-016 10.3008 0 0 -1.38512 19.202 8.12786 -3.55271e-015 -44.9556 0 -3.97569e-016 1.30366 -0 0 -44.3497 -1.77636e-015 2.17774 -7.53049 3.60718 -3.55271e-015 -4.35574 1.77636e-015 1.23619e-015 1.98785e-016 -0 0 -4.44089e-016 17.0584 2.0172e-016 -8.7774 -1.60912e-015 
4.59658 96.8286 -1.40767 1.74686 -12.8773 -2.94 0 11.0026 -2.28207 -2.1202 7.2303 -0.132683 0 10.9693 0 -0.323708 5.73232 0.162626 8.88178e-016 10.9693 0 -0.35347 5.45693 1.11434 4.44089e-016 10.9693 0 0.686651 2.64131 -0.201868 0 14.1034 1.41034 -1.85166 1.28115 1.24083 -7.77156e-016 4.78292 0 -0.313097 -0.154356 -2.41861 2.22045e-016 4.78292 -7.10543e-015 -0.10338 -12.2672 -0.184646 8.88178e-016 10.0739 5.27092 85.0072 -22.6906 -1.93015 0 20.7223 0 18.0305 10.6828 29.6714 -2.84217e-014 28.842 0 0.000144334 29.4427 -18.4676 2.84217e-014 25.0424 0 2.82009 -17.5314 4.30763e-006 -3.04472 3.62624 2.69644 1.4062e-015 45.2637 -2.25941e-015 2.84217e-014 9.66998 -0.061987 1.2921e-015 -7.95139e-016 1.59028e-015 8.88178e-016 10.0739 5.27092 -87.8873 -21.0115 0.757827 -2.84217e-014 20.7223 0 -9.02299 13.6175 -17.9644 -2.84217e-014 28.842 3.55271e-015 -3.6983e-007 26.1848 12.768 -2.84217e-014 25.0424 -7.10543e-015 -1.10504 -8.81437 -7.00025e-007 3.04472 3.62624 2.69644 2.15116e-015 45.2637 -4.09519e-015 2.84217e-014 9.66998 -0.061987 -1.73937e-016 3.18055e-015 -9.93923e-017 -10.3008 -1.42109e-014 0 -10.9949 15.4146 -2.98167 0 -44.9556 0 2.6585e-015 6.67951 -3.20229e-015 0 -44.3497 0 0.819195 -9.14762 8.86527 0 -4.35574 1.77636e-015 3.318e-015 -9.93923e-017 9.93923e-017 -3.55271e-015 2.22045e-016 17.0584 1.82159e-015 -14.2356 4.10164e-016 10.3008 0 3.55271e-015 -1.38098 19.1841 8.2433 0 -44.9556 1.77636e-015 3.74934e-017 1.35059 -1.59072e-015 0 -44.3497 0 2.16518 -7.55872 3.49775 0 -4.35574 0 -3.54085e-016 -4.96962e-017 -3.18055e-015 0 -4.44089e-016 17.0584 -1.3761e-015 -8.77627 -1.60912e-015 
4.59963 96.8277 -1.40597 1.74407 -12.8794 -2.94629 -1.77636e-015 11.0026 -2.28207 -2.11623 7.22717 -0.131792 0 10.9693 8.88178e-016 -0.323099 5.73368 0.162786 -8.88178e-016 10.9693 0 -0.353561 5.45996 1.11447 0 10.9693 0 0.686208 2.63997 -0.201928 0 14.1034 1.41034 -1.84788 1.27782 1.23959 1.11022e-016 4.78292 3.55271e-015 -0.307647 -0.14885 -2.41755 0 4.78292 -7.10543e-015 -0.100804 -12.2631 -0.184322 -8.88178e-016 10.0739 5.27092 85.025 -22.6808 -1.92247 -2.84217e-014 20.7223 0 17.9914 10.6346 29.4994 -5.68434e-014 28.842 7.10543e-015 0.000192082 29.4776 -18.3303 -2.84217e-014 25.0424 1.77636e-015 2.80736 -17.5437 5.74389e-006 -3.04472 3.62624 2.69644 -1.12272e-015 45.2637 4.51883e-015 -2.84217e-014 9.66998 -0.061987 2.98177e-016 -7.95139e-016 1.59028e-015 -8.88178e-016 10.0739 5.27092 -87.8972 -21.0085 0.754145 0 20.7223 -3.55271e-015 -9.03244 13.6039 -17.9322 2.84217e-014 28.842 -3.55271e-015 -3.83419e-007 26.1842 12.7817 0 25.0424 0 -1.10222 -8.82373 -9.3339e-007 3.04472 3.62624 2.69644 -3.06547e-015 45.2637 5.22489e-015 -2.84217e-014 9.66998 -0.061987 -1.61513e-016 -3.18055e-015 -9.93923e-017 -10.3008 0 0 -10.9952 15.4163 -2.97882 0 -44.9556 0 2.8569e-016 6.68162 -1.60115e-015 0 -44.3497 0 0.821896 -9.1466 8.8701 0 -4.35574 0 8.85989e-016 0 9.93923e-017 0 -6.66134e-016 17.0584 2.54882e-015 -14.237 3.07625e-016 10.3008 -1.42109e-014 0 -1.37679 19.1662 8.35873 3.55271e-015 -44.9556 0 -2.78779e-016 1.39753 -7.95375e-016 -3.55271e-015 -44.3497 -1.77636e-015 2.15257 -7.58693 3.3883 0 -4.35574 -1.77636e-015 -1.0312e-015 -1.98785e-016 -3.18055e-015 0 -8.88178e-016 17.0584 -4.62902e-016 -8.77515 -1.60911e-015 
4.59815 96.8284 -1.39978 1.74129 -12.8814 -2.95259 -1.77636e-015 11.0026 -2.28207 -2.11226 7.22403 -0.130901 0 10.9693 -2.66454e-015 -0.322491 5.73503 0.162945 0 10.9693 0 -0.353652 5.46299 1.1146 1.33227e-015 10.9693 3.55271e-015 0.685765 2.63863 -0.201987 0 14.1034 1.41034 -1.8441 1.2745 1.23835 -3.33067e-016 4.78292 -3.55271e-015 -0.302196 -0.143343 -2.4165 6.66134e-016 4.78292 0 -0.0982287 -12.259 -0.183997 0 10.0739 5.27092 85.0427 -22.6711 -1.9148 0 20.7223 0 17.9522 10.5865 29.3274 -2.84217e-014 28.842 7.10543e-015 0.00014387 29.5125 -18.193 0 25.0424 1.77636e-015 2.79462 -17.5561 4.30821e-006 -3.04472 3.62624 2.69644 -4.46149e-015 45.2637 1.35565e-014 0 9.66998 -0.061987 8.94531e-016 7.95139e-016 -0 0 10.0739 5.27092 -87.9072 -21.0056 0.750463 0 20.7223 -3.55271e-015 -9.04189 13.5902 -17.8999 0 28.842 0 -2.62051e-007 26.1837 12.7955 2.84217e-014 25.0424 0 -1.0994 -8.83309 -7.00061e-007 3.04472 3.62624 2.69644 -1.34316e-015 45.2637 2.1182e-015 -2.84217e-014 9.66998 -0.061987 -1.49089e-016 0 -9.93923e-017 -10.3008 0 -3.55271e-015 -10.9954 15.4179 -2.97598 3.55271e-015 -44.9556 -8.88178e-016 -1.30453e-015 6.68373 -1.60116e-015 3.55271e-015 -44.3497 0 0.824598 -9.14559 8.87494 0 -4.35574 -1.77636e-015 3.54085e-016 0 -0 3.55271e-015 -6.66134e-016 17.0584 3.76977e-016 -14.2384 1.02542e-016 10.3008 -1.42109e-014 -3.55271e-015 -1.37257 19.1482 8.47415 0 -44.9556 -1.77636e-015 9.93923e-017 1.44446 -0 3.55271e-015 -44.3497 1.77636e-015 2.1399 -7.61511 3.27884 -3.55271e-015 -4.35574 0 5.5287e-016 -4.96962e-017 -0 0 0 17.0584 -4.75294e-016 -8.77402 -1.60911e-015 
4.59765 96.8295 -1.39274 1.73851 -12.8835 -2.95888 0 11.0026 -2.28207 -2.10829 7.2209 -0.13001 -8.88178e-016 10.9693 8.88178e-016 -0.321882 5.73639 0.163105 8.88178e-016 10.9693 8.88178e-016 -0.353744 5.46601 1.11474 -4.44089e-016 10.9693 3.55271e-015 0.685322 2.63729 -0.202047 -8.88178e-016 14.1034 1.41034 -1.84032 1.27117 1.23711 6.66134e-016 4.78292 -3.55271e-015 -0.296745 -0.137836 -2.41544 6.66134e-016 4.78292 3.55271e-015 -0.0956531 -12.255 -0.183673 -1.77636e-015 10.0739 5.27092 85.0605 -22.6614 -1.90713 2.84217e-014 20.7223 -3.55271e-015 17.9128 10.5386 29.1554 -2.84217e-014 28.842 7.10543e-015 -3.99423e-007 29.5473 -18.0556 0 25.0424 0 2.78188 -17.5684 -8.3404e-016 -3.04472 3.62624 2.69644 -2.713e-015 45.2637 4.51883e-015 0 9.66998 -0.061987 -9.93923e-017 7.95139e-016 1.59028e-015 -1.77636e-015 10.0739 5.27092 -87.9172 -21.0026 0.746782 2.84217e-014 20.7223 3.55271e-015 -9.05133 13.5766 -17.8677 2.84217e-014 28.842 -3.55271e-015 -5.72778e-009 26.1832 12.8092 -2.84217e-014 25.0424 3.55271e-015 -1.09657 -8.84245 9.05291e-016 3.04472 3.62624 2.69644 2.51146e-015 45.2637 -4.09519e-015 0 9.66998 -0.061987 1.49089e-016 0 1.98785e-016 -10.3008 1.42109e-014 3.55271e-015 -10.9957 15.4196 -2.97314 -3.55271e-015 -44.9556 -8.88178e-016 1.98785e-015 6.68584 -0 -3.55271e-015 -44.3497 0 0.827299 -9.14457 8.87977 3.55271e-015 -4.35574 -1.77636e-015 -1.14146e-015 1.98785e-016 -1.98785e-016 0 1.11022e-015 17.0584 4.94607e-016 -14.2398 2.05086e-016 10.3008 -1.42109e-014 3.55271e-015 -1.36832 19.1303 8.58956 0 -44.9556 0 2.77475e-016 1.4914 7.95408e-016 0 -44.3497 1.77636e-015 2.12717 -7.64328 3.16937 3.55271e-015 -4.35574 -1.77636e-015 9.00743e-016 1.98785e-016 3.18055e-015 0 -4.44089e-016 17.0584 1.36673e-015 -8.77289 3.21821e-015 
4.60058 96.8278 -1.38876 1.73513 -12.89 -2.96417 1.77636e-015 11.0026 -2.28207 -2.10575 7.22417 -0.131193 -8.88178e-016 10.9693 8.88178e-016 -0.320453 5.73456 0.162503 0 10.9693 0 -0.352216 5.46618 1.11542 -8.88178e-016 10.9693 -3.55271e-015 0.684224 2.63917 -0.200778 0 14.1034 1.41034 -1.83298 1.27055 1.23233 5.55112e-016 4.78292 3.55271e-015 -0.297073 -0.136929 -2.42295 2.22045e-016 4.78292 7.10543e-015 -0.0953325 -12.2532 -0.184197 -8.88178e-016 10.0739 5.27092 85.0498 -22.6724 -1.91217 -2.84217e-014 20.7223 3.55271e-015 17.9533 10.5791 29.2646 0 28.842 1.42109e-014 9.65055e-005 29.5158 -18.1577 0 25.0424 0 2.80831 -17.5443 1.74875e-005 -3.04472 3.62624 2.69644 -1.81847e-015 45.2637 4.51883e-015 0 9.66998 -0.061987 6.95746e-016 7.95139e-016 1.59028e-015 -8.88178e-016 10.0739 5.27092 -87.9292 -21.0027 0.742485 2.84217e-014 20.7223 0 -9.04233 13.5587 -17.7914 -2.84217e-014 28.842 7.10543e-015 -1.12598e-005 26.1931 12.7697 2.84217e-014 25.0424 0 -1.11653 -8.82877 -7.2331e-006 3.04472 3.62624 2.69644 -2.30992e-015 45.2637 3.67155e-015 -2.84217e-014 9.66998 -0.061987 -1.2424e-016 1.59028e-015 9.93923e-017 -10.3008 1.42109e-014 0 -10.9951 15.429 -2.96695 -3.55271e-015 -44.9556 -8.88178e-016 -8.82146e-016 6.68525 1.60116e-015 0 -44.3497 -3.55271e-015 0.827131 -9.14571 8.87952 0 -4.35574 0 3.25898e-015 -9.93923e-017 -0 0 0 17.0584 1.79093e-015 -14.2392 5.12714e-016 10.3008 1.42109e-014 0 -1.36806 19.1432 8.5906 0 -44.9556 1.77636e-015 2.40109e-016 1.48855 -1.59081e-015 0 -44.3497 0 2.12729 -7.64634 3.17324 -3.55271e-015 -4.35574 -1.77636e-015 -5.40446e-016 -4.96962e-017 -3.18055e-015 -3.55271e-015 4.44089e-016 17.0584 -5.46658e-016 -8.76974 -0 
4.60226 96.8278 -1.38215 1.73175 -12.8964 -2.96947 -1.77636e-015 11.0026 -2.28207 -2.10321 7.22744 -0.132376 -8.88178e-016 10.9693 0 -0.319025 5.73273 0.161901 8.88178e-016 10.9693 8.88178e-016 -0.350688 5.46635 1.1161 0 10.9693 -3.55271e-015 0.683126 2.64105 -0.199509 -8.88178e-016 14.1034 1.41034 -1.82564 1.26993 1.22755 3.33067e-016 4.78292 3.55271e-015 -0.2974 -0.136021 -2.43045 -1.11022e-016 4.78292 3.55271e-015 -0.0950119 -12.2514 -0.184721 0 10.0739 5.27092 85.039 -22.6833 -1.91722 0 20.7223 0 17.9936 10.6198 29.3738 0 28.842 -7.10543e-015 0.000128791 29.4842 -18.2598 0 25.0424 0 2.83474 -17.5202 2.33135e-005 -3.04472 3.62624 2.69644 -9.79219e-016 45.2637 -2.25941e-015 5.68434e-014 9.66998 -0.061987 -1.59028e-015 -7.95139e-016 -0 0 10.0739 5.27092 -87.9412 -21.0027 0.738188 2.84217e-014 20.7223 3.55271e-015 -9.03331 13.5408 -17.715 0 28.842 -7.10543e-015 -1.49635e-005 26.2029 12.7303 0 25.0424 -3.55271e-015 -1.13649 -8.81509 -9.64377e-006 3.04472 3.62624 2.69644 4.50023e-016 45.2637 -4.2364e-016 0 9.66998 -0.061987 1.98785e-016 0 -9.93923e-017 -10.3008 0 0 -10.9945 15.4383 -2.96076 -3.55271e-015 -44.9556 0 1.21751e-015 6.68466 3.20232e-015 3.55271e-015 -44.3497 1.77636e-015 0.826964 -9.14684 8.87927 3.55271e-015 -4.35574 0 3.05166e-015 1.98785e-016 -0 -3.55271e-015 0 17.0584 3.14866e-015 -14.2386 4.1017e-016 10.3008 1.42109e-014 3.55271e-015 -1.3678 19.156 8.59163 -3.55271e-015 -44.9556 0 1.98785e-016 1.4857 -0 3.55271e-015 -44.3497 0 2.12741 -7.64941 3.1771 3.55271e-015 -4.35574 0 -6.27414e-016 4.96962e-017 -0 0 4.44089e-016 17.0584 1.80149e-016 -8.76659 -0 
